<?xml version="1.0" encoding="utf-8"?>
<!-- Generator: Adobe Illustrator 19.2.1, SVG Export Plug-In . SVG Version: 6.00 Build 0)  -->
<svg version="1.1" id="Layer_1" xmlns="http://www.w3.org/2000/svg" xmlns:xlink="http://www.w3.org/1999/xlink" x="0px" y="0px"
	 viewBox="0 0 17.2 16" style="enable-background:new 0 0 17.2 16;" xml:space="preserve">
<style type="text/css">
	.st0{fill:#5E9E36;}
</style>
<g>
	<path class="st0" d="M12.1,2c1.6,0,3.1,1.6,3.1,3.2c0,1.9-0.3,2.2-0.8,3l-0.2,0.3c-0.7,1-4,4.5-5.4,5.4l-0.1,0l-0.1,0
		C7.2,13,3.8,9.5,3.2,8.5L3,8.2c-0.5-0.8-0.8-1.1-0.8-3C2.2,3.6,3.6,2,5.2,2c0.8,0,1.5,0.3,2,0.8l1.4,1.4l1.4-1.4
		C10.6,2.3,11.3,2,12.1,2 M12.1,0c-1.3,0-2.6,0.5-3.4,1.4C7.8,0.5,6.6,0,5.2,0C2.5,0,0.2,2.5,0.2,5.2c0,2.7,0.6,3.4,1.4,4.4
		c0.7,1,5.6,6.4,7,6.4c0,0,0.1,0,0.1,0c0,0,0.1,0,0.1,0c1.5,0,6.3-5.3,7-6.4c0.7-1,1.4-1.7,1.4-4.4C17.2,2.5,14.8,0,12.1,0L12.1,0z"
		/>
</g>
</svg>
