<?xml version="1.0" encoding="utf-8"?>
<!-- Generator: Adobe Illustrator 19.2.1, SVG Export Plug-In . SVG Version: 6.00 Build 0)  -->
<svg version="1.1" id="Layer_1" xmlns="http://www.w3.org/2000/svg" xmlns:xlink="http://www.w3.org/1999/xlink" x="0px" y="0px"
	 viewBox="0 0 17.2 16" style="enable-background:new 0 0 17.2 16;" xml:space="preserve">
<style type="text/css">
	.st0{fill-rule:evenodd;clip-rule:evenodd;fill:#633527;}
</style>
<g>
	<path class="st0" d="M12.1,0c-1.3,0-2.6,0.5-3.4,1.4C7.8,0.5,6.6,0,5.2,0C2.5,0,0.2,2.5,0.2,5.2c0,2.7,0.6,3.4,1.4,4.4
		c0.7,1,5.6,6.4,7,6.4c0,0,0.1,0,0.1,0c0,0,0.1,0,0.1,0c1.5,0,6.3-5.3,7-6.4c0.7-1,1.4-1.7,1.4-4.4C17.2,2.5,14.8,0,12.1,0z"/>
</g>
</svg>
